<svg id="Capa_1" enable-background="new 0 0 512 512" height="512" viewBox="0 0 512 512" width="512" xmlns="http://www.w3.org/2000/svg"><path d="m221 176c0-13.785-11.215-25-25-25s-25 11.215-25 25v25h25c13.785 0 25-11.215 25-25z"/><path d="m192.213 231 34.394 34.394c5.858 5.858 5.858 15.355 0 21.213-2.929 2.929-6.768 4.393-10.607 4.393s-7.678-1.464-10.606-4.394l-34.394-34.393v198.787h326c8.284 0 15-6.716 15-15v-205zm243.787 160h-70c-8.284 0-15-6.716-15-15s6.716-15 15-15h70c8.284 0 15 6.716 15 15s-6.716 15-15 15zm0-60h-90c-8.284 0-15-6.716-15-15s6.716-15 15-15h90c8.284 0 15 6.716 15 15s-6.716 15-15 15z"/><path d="m171 127.035c7.507-3.849 16-6.035 25-6.035 30.327 0 55 24.673 55 55 0 9-2.187 17.493-6.035 25h267.035v-125c0-8.284-6.716-15-15-15h-326z"/><path d="m67.035 201c-3.848-7.507-6.035-16-6.035-25 0-30.327 24.673-55 55-55 9 0 17.493 2.187 25 6.035v-66.035h-126c-8.284 0-15 6.716-15 15v125z"/><path d="m141 176c0-13.785-11.215-25-25-25s-25 11.215-25 25 11.215 25 25 25h25z"/><path d="m141 252.213-34.394 34.394c-2.928 2.929-6.767 4.393-10.606 4.393s-7.678-1.464-10.606-4.394c-5.858-5.858-5.858-15.355 0-21.213l34.393-34.393h-119.787v205c0 8.284 6.716 15 15 15h126z"/></svg>