<svg height="511pt" viewBox="1 -50 511.99999 511" width="511pt" xmlns="http://www.w3.org/2000/svg"><path d="m150.445312 319.308594c7.484376 0 13.8125-8.269532 13.8125-18.054688v-29.257812c0-9.785156-6.328124-18.054688-13.8125-18.054688-7.488281 0-13.8125 8.269532-13.8125 18.054688v29.257812c0 9.789063 6.324219 18.054688 13.8125 18.054688zm0 0"/><path d="m207.496094 154.757812c3.019531-3.460937 4.75-8.390624 4.75-13.519531v-29.257812c0-9.785157-6.328125-18.054688-13.816406-18.054688-7.484376 0-13.8125 8.269531-13.8125 18.054688v29.257812c0 9.785157 6.328124 18.054688 13.8125 18.054688 4.449218 0 7.589843-2.839844 9.066406-4.535157zm0 0"/><path d="m418.996094 154.757812c3.015625-3.460937 4.746094-8.390624 4.746094-13.519531v-29.257812c0-9.769531-6.304688-18.027344-13.773438-18.054688l-12.199219.082031v65.203126l12.199219.082031c4.425781-.015625 7.554688-2.847657 9.027344-4.535157zm0 0"/><path d="m467 .5h-422c-24.8125 0-45 20.1875-45 45v320.464844c0 24.8125 20.1875 45 45 45h422c24.8125 0 45-20.1875 45-45v-320.464844c0-24.8125-20.1875-45-45-45zm-133.964844 252.84375c-8.285156 0-15-6.714844-15-15s6.714844-15 15-15h57.332032c8.285156 0 15 6.714844 15 15s-6.714844 15-15 15h-13.664063v81.449219c0 8.28125-6.71875 15-15 15-8.285156 0-15-6.71875-15-15v-81.449219zm-233.140625-111.734375c-22.960937 0-41.636719-17.929687-41.636719-39.96875s18.675782-39.96875 41.636719-39.96875c17.355469 0 33.058594 10.496094 39.0625 26.117187 2.972657 7.730469-.882812 16.410157-8.617187 19.382813-7.730469 2.976563-16.410156-.882813-19.382813-8.617187-1.582031-4.117188-6.03125-6.882813-11.0625-6.882813-6.417969 0-11.636719 4.472656-11.636719 9.96875s5.21875 9.96875 11.636719 9.96875c22.957031 0 41.632813 17.929687 41.632813 39.96875s-18.675782 39.972656-41.632813 39.972656c-17.035156 0-32.183593-9.785156-38.585937-24.929687-3.226563-7.628906.34375-16.433594 7.972656-19.660156 7.628906-3.226563 16.429688.34375 19.65625 7.972656 1.675781 3.957031 6.078125 6.617187 10.957031 6.617187 6.417969 0 11.636719-4.472656 11.636719-9.972656 0-5.496094-5.222656-9.96875-11.636719-9.96875zm6.738281 130.390625c0-26.5 19.652344-48.058594 43.8125-48.058594 24.15625 0 43.8125 21.558594 43.8125 48.058594v29.253906c0 26.496094-19.65625 48.058594-43.8125 48.058594-24.160156 0-43.8125-21.5625-43.8125-48.058594zm47.984376-130.761719v-29.253906c0-26.5 19.65625-48.058594 43.8125-48.058594 24.160156 0 43.8125 21.558594 43.8125 48.058594v29.253906c0 12.453125-4.308594 24.253907-12.128907 33.230469-8.210937 9.421875-19.761719 14.824219-31.679687 14.824219 0 0 0 0-.003906 0-24.15625 0-43.8125-21.558594-43.8125-48.054688zm57.015624 97.4375c0-8.285156 6.714844-15 15-15 8.28125 0 15 6.714844 15 15v62.578125c0 9.785156 6.324219 18.054688 13.8125 18.054688 7.484376 0 13.8125-8.269532 13.8125-18.054688v-62.578125c0-8.285156 6.714844-15 15-15 8.28125 0 15 6.714844 15 15v62.578125c0 26.496094-19.65625 48.054688-43.8125 48.054688-24.160156 0-43.8125-21.558594-43.8125-48.054688zm64.640626-49.566406c-8.285157 0-15-6.714844-15-15v-95c0-8.28125 6.714843-15 15-15 8.28125 0 15 6.71875 15 15v80h43c8.28125 0 15 6.71875 15 15 0 8.285156-6.71875 15-15 15zm106.394531 0c-8.242188-.054687-14.894531-6.753906-14.894531-15v-95c0-8.242187 6.652343-14.941406 14.894531-15l27.160156-.183594h.101563c24.160156 0 43.8125 21.558594 43.8125 48.058594v29.253906c0 12.453125-4.308594 24.253907-12.128907 33.230469-8.214843 9.421875-19.761719 14.824219-31.679687 14.824219-.042969-.007813-.070313 0-.105469 0zm0 0"/></svg>