<svg height="511pt" viewBox="1 -50 511.99999 511" width="511pt" xmlns="http://www.w3.org/2000/svg"><path d="m467 .5h-422c-24.8125 0-45 20.1875-45 45v320.464844c0 24.8125 20.1875 45 45 45h422c24.8125 0 45-20.1875 45-45v-320.464844c0-24.8125-20.1875-45-45-45zm15 365.464844c0 8.269531-6.730469 15-15 15h-422c-8.269531 0-15-6.730469-15-15v-320.464844c0-8.273438 6.730469-15 15-15h422c8.269531 0 15 6.726562 15 15zm0 0"/><path d="m141.527344 151.578125c0-22.039063-18.675782-39.96875-41.632813-39.96875-6.417969 0-11.636719-4.472656-11.636719-9.96875s5.21875-9.96875 11.636719-9.96875c5.03125 0 9.476563 2.765625 11.0625 6.882813 2.972657 7.734374 11.648438 11.59375 19.382813 8.617187 7.730468-2.972656 11.589844-11.648437 8.617187-19.382813-6.007812-15.621093-21.707031-26.117187-39.066406-26.117187-22.957031 0-41.636719 17.929687-41.636719 39.96875s18.679688 39.96875 41.636719 39.96875c6.417969 0 11.636719 4.472656 11.636719 9.96875 0 5.5-5.222656 9.972656-11.636719 9.972656-4.878906 0-9.28125-2.660156-10.953125-6.617187-3.230469-7.628906-12.03125-11.199219-19.660156-7.972656-7.628906 3.230468-11.199219 12.03125-7.972656 19.660156 6.40625 15.144531 21.550781 24.929687 38.585937 24.929687 22.960937-.003906 41.636719-17.933593 41.636719-39.972656zm0 0"/><path d="m230.113281 174.46875c7.820313-8.976562 12.128907-20.777344 12.128907-33.230469v-29.253906c0-26.5-19.652344-48.058594-43.8125-48.058594-24.160157 0-43.8125 21.558594-43.8125 48.058594v29.253906c0 26.496094 19.652343 48.054688 43.8125 48.054688 11.921874 0 23.46875-5.402344 31.683593-14.824219zm-17.867187-33.230469c0 5.128907-1.730469 10.058594-4.75 13.519531-1.476563 1.695313-4.617188 4.535157-9.066406 4.535157-7.484376 0-13.8125-8.265625-13.8125-18.054688v-29.253906c0-9.789063 6.328124-18.058594 13.8125-18.058594 7.488281 0 13.816406 8.269531 13.816406 18.058594zm0 0"/><path d="m276.273438 189.109375h58c8.28125 0 15-6.714844 15-15 0-8.28125-6.71875-15-15-15h-43v-80c0-8.28125-6.71875-15-15-15-8.285157 0-15 6.71875-15 15v95c0 8.285156 6.714843 15 15 15zm0 0"/><path d="m409.929688 63.925781c-.035157 0-.066407 0-.101563 0l-27.160156.183594c-8.242188.058594-14.894531 6.757813-14.894531 15v95c0 8.246094 6.652343 14.945313 14.894531 15l27.160156.183594c.035156 0 .058594-.007813.101563 0 11.921874 0 23.46875-5.402344 31.679687-14.824219 7.824219-8.976562 12.132813-20.777344 12.132813-33.230469v-29.253906c0-26.5-19.652344-48.058594-43.8125-48.058594zm13.8125 77.3125c0 5.128907-1.730469 10.058594-4.746094 13.519531-1.472656 1.6875-4.601563 4.519532-9.027344 4.535157l-12.199219-.082031v-65.203126l12.199219-.082031c7.46875.027344 13.773438 8.285157 13.773438 18.058594zm0 0"/><path d="m150.445312 223.941406c-24.160156 0-43.8125 21.558594-43.8125 48.058594v29.253906c0 26.496094 19.652344 48.058594 43.8125 48.058594 24.15625 0 43.8125-21.5625 43.8125-48.058594v-29.253906c0-26.5-19.65625-48.058594-43.8125-48.058594zm13.8125 77.3125c0 9.785156-6.328124 18.054688-13.8125 18.054688-7.488281 0-13.8125-8.269532-13.8125-18.054688v-29.257812c0-9.785156 6.324219-18.054688 13.8125-18.054688 7.484376 0 13.8125 8.269532 13.8125 18.054688zm0 0"/><path d="m284.257812 223.675781c-8.285156 0-15 6.714844-15 15v62.578125c0 9.785156-6.328124 18.054688-13.8125 18.054688-7.488281 0-13.8125-8.269532-13.8125-18.054688v-62.578125c0-8.285156-6.71875-15-15-15-8.285156 0-15 6.714844-15 15v62.578125c0 26.496094 19.652344 48.054688 43.8125 48.054688 24.15625 0 43.8125-21.558594 43.8125-48.054688v-62.578125c0-8.285156-6.71875-15-15-15zm0 0"/><path d="m390.367188 223.34375h-57.332032c-8.285156 0-15 6.714844-15 15s6.714844 15 15 15h13.667969v81.449219c0 8.28125 6.714844 15 15 15s15-6.71875 15-15v-81.449219h13.667969c8.28125 0 15-6.714844 15-15s-6.71875-15-15.003906-15zm0 0"/></svg>