<svg id="Layer_3" enable-background="new 0 0 64 64" height="512" viewBox="0 0 64 64" width="512" xmlns="http://www.w3.org/2000/svg"><g><circle cx="58" cy="6" r="4"/><circle cx="54" cy="30" r="4"/><path d="m13 60c0 .551.449 1 1 1h5v-2h-6z"/><path d="m13 55h6v2h-6z"/><path d="m13 47h6v2h-6z"/><path d="m7 51h4v-11c0-1.654 1.346-3 3-3h7v-14h-14z"/><path d="m13 51h6v2h-6z"/><path d="m23 23h6v14h-6z"/><path d="m23.826 15-9.774-11.403-4.587 6.116 8.812 5.287z"/><path d="m42.535 9.713-4.587-6.116-9.774 11.403h5.549z"/><path d="m3 17h46v4h-46z"/><path d="m13 43h6v2h-6z"/><path d="m31 23h14v14h-14z"/><path d="m60 39h-5v2h6v-1c0-.551-.449-1-1-1z"/><path d="m55 43h6v2h-6z"/><path d="m55 51h6v2h-6z"/><path d="m55 61h5c.551 0 1-.449 1-1v-1h-6z"/><path d="m55 47h6v2h-6z"/><path d="m55 55h6v2h-6z"/><path d="m21 61h32v-22h-32zm16-20c4.962 0 9 4.038 9 9s-4.038 9-9 9-9-4.038-9-9 4.038-9 9-9z"/><path d="m36 56.92v-1.92h-2v-2h3c.551 0 1-.449 1-1s-.449-1-1-1c-1.654 0-3-1.346-3-3 0-1.302.839-2.402 2-2.816v-2.104c-3.387.488-6 3.401-6 6.92s2.613 6.432 6 6.92z"/><path d="m37 49c1.654 0 3 1.346 3 3 0 1.302-.839 2.402-2 2.816v2.104c3.387-.488 6-3.401 6-6.92s-2.613-6.432-6-6.92v1.92h2v2h-3c-.551 0-1 .449-1 1s.449 1 1 1z"/><path d="m19 39h-5c-.551 0-1 .449-1 1v1h6z"/></g></svg>